# xmcd
#
# Track frame offsets: 
#        150
#        15642
#        28427
#        41417
#        51570
#        61785
#        78447
#        95347
#        107060
#        124707
#        138450
#        151125
#
# Disc length: 2205 seconds
#
# Revision: 2
# Processed by: cddbd v1.5.2PL0 Copyright (c) Steve Scherf et al.
# Submitted via: ExactAudioCopy v0.99pb5
#
DISCID=9a089b0c
DTITLE=Oliver Onions - I Grandi Successi Originali - CD 1
DYEAR=2000
DGENRE=Pop
TTITLE0=Angels and beans
TTITLE1=Christine
TTITLE2=Dune buggy
TTITLE3=See you later
TTITLE4=London Town
TTITLE5=Northern train
TTITLE6=Old man
TTITLE7=Same situation
TTITLE8=Fool's concerto
TTITLE9=Springtime in Rome
TTITLE10=Take it easy, Joe
TTITLE11=mmm!?!
EXTD=
EXTT0=
EXTT1=
EXTT2=
EXTT3=
EXTT4=
EXTT5=
EXTT6=
EXTT7=
EXTT8=
EXTT9=
EXTT10=
EXTT11=
PLAYORDER=
